<?xml version="1.0" encoding="UTF-8" standalone="no"?>
<!DOCTYPE svg PUBLIC "-//W3C//DTD SVG 1.1//EN"
 "http://www.w3.org/Graphics/SVG/1.1/DTD/svg11.dtd">
<!-- Generated by graphviz version 2.43.0 (0)
 -->
<!-- Title: %3 Pages: 1 -->
<svg width="1137pt" height="404pt"
 viewBox="0.00 0.00 1137.10 404.00" xmlns="http://www.w3.org/2000/svg" xmlns:xlink="http://www.w3.org/1999/xlink">
<g id="graph0" class="graph" transform="scale(1 1) rotate(0) translate(4 400)">
<title>%3</title>
<polygon fill="white" stroke="transparent" points="-4,4 -4,-400 1133.1,-400 1133.1,4 -4,4"/>
<!-- [root] kubernetes_deployment.mongo (expand) -->
<g id="node1" class="node">
<title>[root] kubernetes_deployment.mongo (expand)</title>
<polygon fill="none" stroke="black" points="797.1,-180 557.1,-180 557.1,-144 797.1,-144 797.1,-180"/>
<text text-anchor="middle" x="677.1" y="-158.3" font-family="Times,serif" font-size="14.00">kubernetes_deployment.mongo</text>
</g>
<!-- [root] kubernetes_namespace.wandek8s&#45;nodejs (expand) -->
<g id="node4" class="node">
<title>[root] kubernetes_namespace.wandek8s&#45;nodejs (expand)</title>
<polygon fill="none" stroke="black" points="832.1,-108 522.1,-108 522.1,-72 832.1,-72 832.1,-108"/>
<text text-anchor="middle" x="677.1" y="-86.3" font-family="Times,serif" font-size="14.00">kubernetes_namespace.wandek8s&#45;nodejs</text>
</g>
<!-- [root] kubernetes_deployment.mongo (expand)&#45;&gt;[root] kubernetes_namespace.wandek8s&#45;nodejs (expand) -->
<g id="edge1" class="edge">
<title>[root] kubernetes_deployment.mongo (expand)&#45;&gt;[root] kubernetes_namespace.wandek8s&#45;nodejs (expand)</title>
<path fill="none" stroke="black" d="M677.1,-143.7C677.1,-135.98 677.1,-126.71 677.1,-118.11"/>
<polygon fill="black" stroke="black" points="680.6,-118.1 677.1,-108.1 673.6,-118.1 680.6,-118.1"/>
</g>
<!-- [root] kubernetes_deployment.wandek8s&#45;nodejs (expand) -->
<g id="node2" class="node">
<title>[root] kubernetes_deployment.wandek8s&#45;nodejs (expand)</title>
<polygon fill="none" stroke="black" points="1129.1,-180 815.1,-180 815.1,-144 1129.1,-144 1129.1,-180"/>
<text text-anchor="middle" x="972.1" y="-158.3" font-family="Times,serif" font-size="14.00">kubernetes_deployment.wandek8s&#45;nodejs</text>
</g>
<!-- [root] kubernetes_deployment.wandek8s&#45;nodejs (expand)&#45;&gt;[root] kubernetes_namespace.wandek8s&#45;nodejs (expand) -->
<g id="edge2" class="edge">
<title>[root] kubernetes_deployment.wandek8s&#45;nodejs (expand)&#45;&gt;[root] kubernetes_namespace.wandek8s&#45;nodejs (expand)</title>
<path fill="none" stroke="black" d="M900.31,-143.97C857.58,-133.83 803.22,-120.93 758.84,-110.4"/>
<polygon fill="black" stroke="black" points="759.49,-106.95 748.95,-108.05 757.87,-113.76 759.49,-106.95"/>
</g>
<!-- [root] kubernetes_namespace.wandek8s&#45;monitoring (expand) -->
<g id="node3" class="node">
<title>[root] kubernetes_namespace.wandek8s&#45;monitoring (expand)</title>
<polygon fill="none" stroke="black" points="346.1,-108 4.1,-108 4.1,-72 346.1,-72 346.1,-108"/>
<text text-anchor="middle" x="175.1" y="-86.3" font-family="Times,serif" font-size="14.00">kubernetes_namespace.wandek8s&#45;monitoring</text>
</g>
<!-- [root] provider[&quot;registry.terraform.io/hashicorp/kubernetes&quot;] -->
<g id="node8" class="node">
<title>[root] provider[&quot;registry.terraform.io/hashicorp/kubernetes&quot;]</title>
<polygon fill="none" stroke="black" points="374.1,-36 -0.1,-18 374.1,0 748.29,-18 374.1,-36"/>
<text text-anchor="middle" x="374.1" y="-14.3" font-family="Times,serif" font-size="14.00">provider[&quot;registry.terraform.io/hashicorp/kubernetes&quot;]</text>
</g>
<!-- [root] kubernetes_namespace.wandek8s&#45;monitoring (expand)&#45;&gt;[root] provider[&quot;registry.terraform.io/hashicorp/kubernetes&quot;] -->
<g id="edge3" class="edge">
<title>[root] kubernetes_namespace.wandek8s&#45;monitoring (expand)&#45;&gt;[root] provider[&quot;registry.terraform.io/hashicorp/kubernetes&quot;]</title>
<path fill="none" stroke="black" d="M223.52,-71.97C253.32,-61.49 291.49,-48.06 321.95,-37.34"/>
<polygon fill="black" stroke="black" points="323.28,-40.59 331.55,-33.97 320.95,-33.98 323.28,-40.59"/>
</g>
<!-- [root] kubernetes_namespace.wandek8s&#45;nodejs (expand)&#45;&gt;[root] provider[&quot;registry.terraform.io/hashicorp/kubernetes&quot;] -->
<g id="edge4" class="edge">
<title>[root] kubernetes_namespace.wandek8s&#45;nodejs (expand)&#45;&gt;[root] provider[&quot;registry.terraform.io/hashicorp/kubernetes&quot;]</title>
<path fill="none" stroke="black" d="M603.36,-71.97C555.28,-60.86 492.86,-46.44 445.3,-35.45"/>
<polygon fill="black" stroke="black" points="445.91,-32 435.38,-33.16 444.34,-38.82 445.91,-32"/>
</g>
<!-- [root] kubernetes_namespace.wandek8s&#45;socksshop (expand) -->
<g id="node5" class="node">
<title>[root] kubernetes_namespace.wandek8s&#45;socksshop (expand)</title>
<polygon fill="none" stroke="black" points="539.1,-180 203.1,-180 203.1,-144 539.1,-144 539.1,-180"/>
<text text-anchor="middle" x="371.1" y="-158.3" font-family="Times,serif" font-size="14.00">kubernetes_namespace.wandek8s&#45;socksshop</text>
</g>
<!-- [root] kubernetes_namespace.wandek8s&#45;socksshop (expand)&#45;&gt;[root] provider[&quot;registry.terraform.io/hashicorp/kubernetes&quot;] -->
<g id="edge5" class="edge">
<title>[root] kubernetes_namespace.wandek8s&#45;socksshop (expand)&#45;&gt;[root] provider[&quot;registry.terraform.io/hashicorp/kubernetes&quot;]</title>
<path fill="none" stroke="black" d="M371.46,-143.87C371.97,-119.67 372.91,-75.21 373.52,-46.39"/>
<polygon fill="black" stroke="black" points="377.02,-46.26 373.73,-36.19 370.02,-46.11 377.02,-46.26"/>
</g>
<!-- [root] kubernetes_service.mongo (expand) -->
<g id="node6" class="node">
<title>[root] kubernetes_service.mongo (expand)</title>
<polygon fill="none" stroke="black" points="723.6,-252 516.6,-252 516.6,-216 723.6,-216 723.6,-252"/>
<text text-anchor="middle" x="620.1" y="-230.3" font-family="Times,serif" font-size="14.00">kubernetes_service.mongo</text>
</g>
<!-- [root] kubernetes_service.mongo (expand)&#45;&gt;[root] kubernetes_deployment.mongo (expand) -->
<g id="edge6" class="edge">
<title>[root] kubernetes_service.mongo (expand)&#45;&gt;[root] kubernetes_deployment.mongo (expand)</title>
<path fill="none" stroke="black" d="M634.19,-215.7C641.02,-207.3 649.35,-197.07 656.85,-187.86"/>
<polygon fill="black" stroke="black" points="659.57,-190.07 663.17,-180.1 654.14,-185.65 659.57,-190.07"/>
</g>
<!-- [root] kubernetes_service.wandek8s&#45;nodejs (expand) -->
<g id="node7" class="node">
<title>[root] kubernetes_service.wandek8s&#45;nodejs (expand)</title>
<polygon fill="none" stroke="black" points="1082.6,-252 801.6,-252 801.6,-216 1082.6,-216 1082.6,-252"/>
<text text-anchor="middle" x="942.1" y="-230.3" font-family="Times,serif" font-size="14.00">kubernetes_service.wandek8s&#45;nodejs</text>
</g>
<!-- [root] kubernetes_service.wandek8s&#45;nodejs (expand)&#45;&gt;[root] kubernetes_deployment.wandek8s&#45;nodejs (expand) -->
<g id="edge7" class="edge">
<title>[root] kubernetes_service.wandek8s&#45;nodejs (expand)&#45;&gt;[root] kubernetes_deployment.wandek8s&#45;nodejs (expand)</title>
<path fill="none" stroke="black" d="M949.51,-215.7C952.89,-207.81 956.97,-198.3 960.72,-189.55"/>
<polygon fill="black" stroke="black" points="964.04,-190.67 964.77,-180.1 957.61,-187.92 964.04,-190.67"/>
</g>
<!-- [root] provider[&quot;registry.terraform.io/hashicorp/kubernetes&quot;] (close) -->
<g id="node9" class="node">
<title>[root] provider[&quot;registry.terraform.io/hashicorp/kubernetes&quot;] (close)</title>
<ellipse fill="none" stroke="black" cx="510.1" cy="-306" rx="326.04" ry="18"/>
<text text-anchor="middle" x="510.1" y="-302.3" font-family="Times,serif" font-size="14.00">[root] provider[&quot;registry.terraform.io/hashicorp/kubernetes&quot;] (close)</text>
</g>
<!-- [root] provider[&quot;registry.terraform.io/hashicorp/kubernetes&quot;] (close)&#45;&gt;[root] kubernetes_namespace.wandek8s&#45;monitoring (expand) -->
<g id="edge8" class="edge">
<title>[root] provider[&quot;registry.terraform.io/hashicorp/kubernetes&quot;] (close)&#45;&gt;[root] kubernetes_namespace.wandek8s&#45;monitoring (expand)</title>
<path fill="none" stroke="black" d="M402.2,-288.99C332.82,-273.05 246.21,-241.59 194.1,-180 179.63,-162.9 175.36,-137.45 174.43,-118.14"/>
<polygon fill="black" stroke="black" points="177.93,-118.06 174.21,-108.14 170.93,-118.21 177.93,-118.06"/>
</g>
<!-- [root] provider[&quot;registry.terraform.io/hashicorp/kubernetes&quot;] (close)&#45;&gt;[root] kubernetes_namespace.wandek8s&#45;socksshop (expand) -->
<g id="edge9" class="edge">
<title>[root] provider[&quot;registry.terraform.io/hashicorp/kubernetes&quot;] (close)&#45;&gt;[root] kubernetes_namespace.wandek8s&#45;socksshop (expand)</title>
<path fill="none" stroke="black" d="M493.33,-287.87C468.81,-262.82 423.03,-216.05 394.99,-187.41"/>
<polygon fill="black" stroke="black" points="397.42,-184.89 387.92,-180.19 392.42,-189.78 397.42,-184.89"/>
</g>
<!-- [root] provider[&quot;registry.terraform.io/hashicorp/kubernetes&quot;] (close)&#45;&gt;[root] kubernetes_service.mongo (expand) -->
<g id="edge10" class="edge">
<title>[root] provider[&quot;registry.terraform.io/hashicorp/kubernetes&quot;] (close)&#45;&gt;[root] kubernetes_service.mongo (expand)</title>
<path fill="none" stroke="black" d="M536.72,-288.05C551.08,-278.92 568.98,-267.53 584.51,-257.65"/>
<polygon fill="black" stroke="black" points="586.78,-260.35 593.33,-252.03 583.02,-254.45 586.78,-260.35"/>
</g>
<!-- [root] provider[&quot;registry.terraform.io/hashicorp/kubernetes&quot;] (close)&#45;&gt;[root] kubernetes_service.wandek8s&#45;nodejs (expand) -->
<g id="edge11" class="edge">
<title>[root] provider[&quot;registry.terraform.io/hashicorp/kubernetes&quot;] (close)&#45;&gt;[root] kubernetes_service.wandek8s&#45;nodejs (expand)</title>
<path fill="none" stroke="black" d="M609.75,-288.85C674.45,-278.37 759.01,-264.67 826.64,-253.71"/>
<polygon fill="black" stroke="black" points="827.61,-257.1 836.92,-252.04 826.49,-250.19 827.61,-257.1"/>
</g>
<!-- [root] root -->
<g id="node10" class="node">
<title>[root] root</title>
<ellipse fill="none" stroke="black" cx="510.1" cy="-378" rx="58.49" ry="18"/>
<text text-anchor="middle" x="510.1" y="-374.3" font-family="Times,serif" font-size="14.00">[root] root</text>
</g>
<!-- [root] root&#45;&gt;[root] provider[&quot;registry.terraform.io/hashicorp/kubernetes&quot;] (close) -->
<g id="edge12" class="edge">
<title>[root] root&#45;&gt;[root] provider[&quot;registry.terraform.io/hashicorp/kubernetes&quot;] (close)</title>
<path fill="none" stroke="black" d="M510.1,-359.7C510.1,-351.98 510.1,-342.71 510.1,-334.11"/>
<polygon fill="black" stroke="black" points="513.6,-334.1 510.1,-324.1 506.6,-334.1 513.6,-334.1"/>
</g>
</g>
</svg>
